<svg xmlns="http://www.w3.org/2000/svg" viewBox="0 0 500 500"><g id="freepik--background-simple--inject-47"><path d="M311.84,296.1c25-5.58,49.23-16.28,68-33.65,32.17-29.72,44.91-78.76,31.29-120.39-4.74-14.49-12.8-28.47-25.4-37.06-11.69-8-26.37-10.65-40.5-9.88s-27.87,4.77-41.31,9.2c-10.16,3.35-20.56,7-31.24,6.42-12.57-.69-24-7.14-35.21-12.79A320.49,320.49,0,0,0,169.78,73c-18.5-4.53-39.18-7.11-55.63,2.49-15.1,8.81-23.23,26.08-27.24,43.09C74.07,173,97.57,234.07,143.53,265.83c23.62,16.32,51.41,24.85,78.89,32.12C250.86,305.48,283.2,302.5,311.84,296.1Z" style="fill:#C53F3F"></path><path d="M311.84,296.1c25-5.58,49.23-16.28,68-33.65,32.17-29.72,44.91-78.76,31.29-120.39-4.74-14.49-12.8-28.47-25.4-37.06-11.69-8-26.37-10.65-40.5-9.88s-27.87,4.77-41.31,9.2c-10.16,3.35-20.56,7-31.24,6.42-12.57-.69-24-7.14-35.21-12.79A320.49,320.49,0,0,0,169.78,73c-18.5-4.53-39.18-7.11-55.63,2.49-15.1,8.81-23.23,26.08-27.24,43.09C74.07,173,97.57,234.07,143.53,265.83c23.62,16.32,51.41,24.85,78.89,32.12C250.86,305.48,283.2,302.5,311.84,296.1Z" style="fill:#fff;opacity:0.8"></path></g><g id="freepik--Shadow--inject-47"><ellipse id="freepik--path--inject-47" cx="250" cy="415.69" rx="193.89" ry="11.32" style="fill:#f5f5f5"></ellipse></g><g id="freepik--Lines--inject-47"><path d="M245.05,157.66a.5.5,0,0,1-.5-.5v-9.85a.5.5,0,0,1,.5-.5.5.5,0,0,1,.5.5v9.85A.5.5,0,0,1,245.05,157.66Z" style="fill:#C53F3F"></path><path d="M233.12,159.9a.52.52,0,0,1-.38-.17L229,155.29a.5.5,0,1,1,.76-.64l3.77,4.43a.51.51,0,0,1-.06.71A.54.54,0,0,1,233.12,159.9Z" style="fill:#C53F3F"></path><path d="M236.26,163.6a.48.48,0,0,1-.38-.18l-1.12-1.31a.5.5,0,0,1,.76-.65l1.12,1.32a.5.5,0,0,1-.38.82Z" style="fill:#C53F3F"></path><path d="M253.92,163.52a.5.5,0,0,1-.38-.82l4.2-4.95a.5.5,0,1,1,.76.65l-4.2,4.94A.49.49,0,0,1,253.92,163.52Z" style="fill:#C53F3F"></path><path d="M259.81,156.58a.49.49,0,0,1-.32-.12.51.51,0,0,1-.06-.71l.94-1.1a.51.51,0,0,1,.71-.06.49.49,0,0,1,.06.7l-.94,1.11A.5.5,0,0,1,259.81,156.58Z" style="fill:#C53F3F"></path></g><g id="freepik--character-2--inject-47"><polygon points="353.98 392.56 368.38 387.86 374.12 404.79 362.09 408.74 353.98 392.56" style="fill:#ce7a63"></polygon><polygon points="353.99 392.57 368.39 387.86 371.08 395.79 357.86 400.3 353.99 392.57" style="opacity:0.2"></polygon><path d="M356,407.83c-1.33.36-2.66.52-3.21,0a1,1,0,0,1-.27-1.08,1.21,1.21,0,0,1,.63-.77c1.6-.93,5.76.17,5.94.22a.26.26,0,0,1,.19.22.27.27,0,0,1-.14.26A17.52,17.52,0,0,1,356,407.83Zm-2.17-1.59a3.66,3.66,0,0,0-.46.18.74.74,0,0,0-.38.47c-.1.35,0,.48.08.56.66.54,3.29-.14,5.13-.91a11.29,11.29,0,0,0-4.37-.28Z" style="fill:#C53F3F"></path><path d="M359.09,406.73H359c-1.4-.23-4.47-1.81-4.58-3a.94.94,0,0,1,.73-.94,1.88,1.88,0,0,1,1.47,0c1.61.74,2.61,3.44,2.66,3.56a.23.23,0,0,1,0,.25Zm-3.63-3.54h-.16c-.42.17-.4.34-.4.41,0,.72,2.22,2,3.7,2.47a5.81,5.81,0,0,0-2.21-2.82A1.25,1.25,0,0,0,355.46,403.19Z" style="fill:#C53F3F"></path><path d="M360.26,404.37l12.07-4a.93.93,0,0,1,1.08.44l4.56,7.55c.4.79-.87,2.25-1,2.28-5.85,2.52-20.94,7.81-25.25,9.1s-6.15-2.81-4.5-3.72c7.39-4.1,9.66-7.38,11.5-10.4A2.6,2.6,0,0,1,360.26,404.37Z" style="fill:#263238"></path><polygon points="285.34 394.54 300.93 395.83 298.28 414.16 285.25 413.1 285.34 394.54" style="fill:#ce7a63"></polygon><polygon points="285.34 394.55 300.94 395.84 299.66 404.64 285.3 403.56 285.34 394.55" style="opacity:0.2"></polygon><path d="M315.13,341c6.08-23.44,23.57-76.06,11.39-97.56L283,247.49s-.73,65.87-1,87.79c-.32,22.8,1.65,65.89,1.65,65.89l17.86,1.35S313.71,367.3,315.13,341Z" style="fill:#C53F3F"></path><g style="opacity:0.30000000000000004"><path d="M315.13,341c6.08-23.44,23.57-76.06,11.39-97.56L283,247.49s-.73,65.87-1,87.79c-.32,22.8,1.65,65.89,1.65,65.89l17.86,1.35S313.71,367.3,315.13,341Z" style="fill:#fff"></path></g><path d="M317.84,273c.2,5.41,9.29,27.23,8.7,32.84-2.14,7.37-6.71,19.35-9.15,26.51C314.18,312.06,317.84,273,317.84,273Z" style="opacity:0.2"></path><path d="M359.35,333.4c2.12-23.7,8.68-78.73.12-88.86l-45.65,1.06s7,69.32,11.29,91.18c4.44,22.74,30.48,62,30.48,62l16.05-5.37S364.73,360.45,359.35,333.4Z" style="fill:#C53F3F"></path><g style="opacity:0.30000000000000004"><path d="M359.35,333.4c2.12-23.7,8.68-78.73.12-88.86l-45.65,1.06s7,69.32,11.29,91.18c4.44,22.74,30.48,62,30.48,62l16.05-5.37S364.73,360.45,359.35,333.4Z" style="fill:#fff"></path></g><path d="M280.66,409.42c-1.38-.14-2.67-.48-3-1.14a1,1,0,0,1,.14-1.1,1.23,1.23,0,0,1,.88-.49c1.82-.29,5.3,2.25,5.44,2.35a.26.26,0,0,1,.1.28.27.27,0,0,1-.22.19A17.64,17.64,0,0,1,280.66,409.42Zm-1.45-2.27h-.5a.8.8,0,0,0-.52.3c-.22.3-.17.45-.13.56.43.74,3.12,1.06,5.12,1a11.27,11.27,0,0,0-4-1.85Z" style="fill:#C53F3F"></path><path d="M283.91,409.5l-.11,0c-1.22-.72-3.5-3.31-3.16-4.48a.92.92,0,0,1,1-.61,1.84,1.84,0,0,1,1.37.52c1.23,1.27,1.19,4.16,1.19,4.28a.25.25,0,0,1-.09.24Zm-2.1-4.61-.15-.06c-.45,0-.5.17-.52.23-.26.68,1.33,2.71,2.55,3.65a5.85,5.85,0,0,0-1-3.43A1.27,1.27,0,0,0,281.81,404.89Z" style="fill:#C53F3F"></path><path d="M285.85,407.73l13.29.62a.92.92,0,0,1,.85.8l1.51,8.69a1.94,1.94,0,0,1,0,.89,1.43,1.43,0,0,1-1.3.9c-6.85.18-23.54-.34-27.87-.69-4.48-.36-4.71-4.84-2.84-5.1,8.37-1.14,11.67-3.37,14.48-5.52A2.57,2.57,0,0,1,285.85,407.73Z" style="fill:#263238"></path><path d="M306.05,174.77c-1.28,3.09-2.7,6.06-4.18,9s-3.05,5.87-4.69,8.76-3.31,5.76-5.08,8.61-3.57,5.66-5.68,8.67l-.64.91a9.44,9.44,0,0,1-3.45,3,12.39,12.39,0,0,1-2.37.91c-.36.09-.72.16-1.09.23l-.55.08-.46,0a12,12,0,0,1-3.09-.17,13.62,13.62,0,0,1-3.4-1.1,18.27,18.27,0,0,1-3.5-2.17,34.77,34.77,0,0,1-4.21-3.92,69.79,69.79,0,0,1-6.14-7.74c-1.82-2.62-3.47-5.31-5-8.06a78.33,78.33,0,0,1-4.13-8.6,3.7,3.7,0,0,1,2.1-4.8,3.65,3.65,0,0,1,3.18.23l.1,0c2.69,1.55,5.23,3.29,7.76,5l7.35,5.06c2.38,1.66,4.76,3.27,7,4.63a22.6,22.6,0,0,0,2.93,1.57c.36.13.67.18.45,0a3.36,3.36,0,0,0-1.26-.46,7.6,7.6,0,0,0-2-.11l-.32,0-.41,0a7.48,7.48,0,0,0-.82.18,8.34,8.34,0,0,0-1.84.7l-4.09,3.89,3.88-8.58q2-4.43,4.12-8.84c1.4-2.94,2.87-5.86,4.38-8.76s3.08-5.77,4.78-8.55l0,0a11.45,11.45,0,0,1,20.36,10.34Z" style="fill:#ce7a63"></path><path d="M305.8,161.75c3.46,16.51-7.9,33.53-7.9,33.53-6.19,1.35-19.17-8-22.18-14.15,0,0,2.63-11.72,9.79-19.44C292.14,154.54,303.77,152.07,305.8,161.75Z" style="fill:#C53F3F"></path><g style="opacity:0.1"><path d="M305.8,161.75c3.46,16.51-7.9,33.53-7.9,33.53-6.19,1.35-19.17-8-22.18-14.15,0,0,2.63-11.72,9.79-19.44C292.14,154.54,303.77,152.07,305.8,161.75Z"></path></g><path d="M253.15,178.44l-4.71,4.17-6.52-2.18-3.63-2.19a3.17,3.17,0,0,1-1-4l1.57-3.86a3.31,3.31,0,0,1,4.1-2.1l3.44,1.37a6.55,6.55,0,0,1,2.58,1.87Z" style="fill:#ce7a63"></path><path d="M304,154c12.71-2.58,29.11-6,42.6-5.42,8.42.37,14.79,5,15.42,22.08.37,9.85-2.45,30.39-2.21,40,.6,24.24.67,35.13.67,35.13s-9.66-2.39-77.78,1.46c-2.65-47.32,4.58-69,10.47-83.85C297.2,153.34,299,155.06,304,154Z" style="fill:#C53F3F"></path><polygon points="310.7 162.56 311.02 163.49 312.72 169.86 318.45 161.47 310.7 162.56" style="opacity:0.2"></polygon><path d="M308.42,155.43c1.5-1.79,3.32-1,3.89-3.53a8.46,8.46,0,0,0-1.45-5.53l18.68-12.54c.31,7.29.57,13,4.06,15.61,1.46,5.32-8,11.68-21.49,13.05C303.57,163.37,306.26,158,308.42,155.43Z" style="fill:#ce7a63"></path><path d="M311.21,147l15.18-5.39c-3.33,6.56-10.09,10.63-14,9.5A8.64,8.64,0,0,0,311.21,147Z" style="opacity:0.2"></path><path d="M314.22,110.85c10.08-3.27,19.79,4.41,18.7,13.93s-2.05,16-8.19,19.75c-12.21,7.55-19.05,2.07-21-7.58C301.9,128.27,304,114.17,314.22,110.85Z" style="fill:#ce7a63"></path><path d="M311.86,138.52a8.72,8.72,0,0,1-1.3.16.27.27,0,0,1-.27-.25.27.27,0,0,1,.25-.27,7,7,0,0,0,5.56-3,.25.25,0,0,1,.35-.1.26.26,0,0,1,.09.36A7.24,7.24,0,0,1,311.86,138.52Z" style="fill:#263238"></path><path d="M317.45,125.68a7.4,7.4,0,0,1,1.2.49.25.25,0,0,1,.12.34.26.26,0,0,1-.35.12c-3.3-1.59-3.87.32-4.25.58a.25.25,0,0,1-.35-.09.26.26,0,0,1,.09-.35C314,126.7,314.72,124.87,317.45,125.68Z" style="fill:#263238"></path><path d="M320.67,126.48a2.49,2.49,0,0,0-1.81.25.77.77,0,0,0,.42.26A1.9,1.9,0,0,0,320.67,126.48Z" style="opacity:0.1"></path><path d="M320.83,125.32a2.48,2.48,0,0,0-1.68.74.78.78,0,0,0,.47.13A1.92,1.92,0,0,0,320.83,125.32Z" style="opacity:0.1"></path><path d="M306.9,127.17a9.79,9.79,0,0,1,1.2.49.26.26,0,1,1-.23.47c-3.3-1.6-3.87.32-4.25.58a.26.26,0,0,1-.36-.1.25.25,0,0,1,.1-.35C303.47,128.2,304.17,126.36,306.9,127.17Z" style="fill:#263238"></path><path d="M309.57,117.28a13.76,13.76,0,0,1-2.75-.35,15.19,15.19,0,0,1-4.08-8.82,23.13,23.13,0,0,0,9.61.51c6.54-1.22,11.86-1.91,17.41.08,2.43.87,4.88,2,3.25,5C333,113.67,314.2,116.36,309.57,117.28Z" style="fill:#263238"></path><path d="M329.88,140s.3-7.36-3.49-8.73c-2.86-1,1.38-7.53-2.17-8.25-1.52-.48-1.28-5.51-1.28-6.71,0,0,5.95-2.36,10.07-2.62.25,1.31,1,4.45,1.48,7.26C334.49,120.93,333,128.57,329.88,140Z" style="fill:#263238"></path><path d="M335.3,132.88a8.43,8.43,0,0,1-5.22,3.87c-2.91.7-4.28-1.93-3.4-4.62.79-2.42,3.26-5.7,6.15-5.2S336.69,130.5,335.3,132.88Z" style="fill:#ce7a63"></path><path d="M310.05,127.94l-.12,6.27s-2.55.45-3.94-1C310,130.85,310.05,127.94,310.05,127.94Z" style="fill:#ba4d3c"></path><path d="M317.84,123.31a.48.48,0,0,0,0-.84,4.92,4.92,0,0,0-4.5-.14.49.49,0,0,0-.19.67.5.5,0,0,0,.67.19h0a3.93,3.93,0,0,1,3.56.14A.5.5,0,0,0,317.84,123.31Z" style="fill:#263238"></path><path d="M303.27,125a.49.49,0,0,0,.46-.08,3.83,3.83,0,0,1,3.45-.78.49.49,0,0,0,.61-.31.5.5,0,0,0-.31-.63,4.84,4.84,0,0,0-4.36,1,.49.49,0,0,0-.08.69A.46.46,0,0,0,303.27,125Z" style="fill:#263238"></path><path d="M302.15,166c.16-1.37.9-2.8,1.15-4.16.71-4,4.86-10.85,9-11.69-.11,3.79-1.84,12.41-1.84,12.41C308.7,162.8,304.29,163.43,302.15,166Z" style="fill:#263238"></path><path d="M331.43,147c-.47,2.68-10.1,12.71-13.19,14.48,4.69-.22,7.9.6,11.16,2.69,4.35-4.46,5.47-15.2,5.55-15.28C335.12,147.48,332.78,146.55,331.43,147Z" style="fill:#263238"></path><path d="M353.56,176.89c11.8-4.18,7.68-6.08,9.4-6.7a11.91,11.91,0,0,0,.71-2.14c.08-.39.15-.79.2-1.19l0-.48,0-.47v-.77l0-.53,0-.31-.06-.43c0-.09,0-.05,0,0l.24.76.66,2,1.51,4.41c1,3,2.1,6.07,3.11,9.16.51,1.54,1.06,3.08,1.55,4.63l.78,2.4c.35,1,.65,2.08.93,3.16a34.57,34.57,0,0,1,.74,13.93c-.1.64-.16.94-.24,1.37L372.9,207l-.47,2.43-1,4.85c-.68,3.22-1.39,6.45-2.13,9.67-1.5,6.45-4.86,16.66-6.89,23-1,3-3.75,4.94-6.78,4-2.31-.73-2.57-6.81-2.74-9.09-.48-6.69-.57-13.34-.51-20,0-3.32.1-6.63.2-10l.18-5,.23-4.79a16.61,16.61,0,0,0-1.2-5.6c-.19-.51-.4-1-.64-1.53l-1-2.22c-.68-1.52-1.3-3.07-1.95-4.6-1.3-3.08-2.51-6.21-3.7-9.4-.57-1.6-1.16-3.22-1.69-4.93-.27-.85-.55-1.72-.82-2.69-.13-.49-.27-1-.42-1.63-.07-.31-.15-.67-.24-1.16-.05-.27-.1-.54-.17-1l-.05-.46c0-.2,0-.3,0-.69v-.88l0-.51.05-.52a10.54,10.54,0,0,1,.21-1.23,10.93,10.93,0,0,1,.71-2.17c1.72-.64-2.38-2.55,9.42-6.74a11.42,11.42,0,1,1,2.05,22.75Z" style="fill:#ce7a63"></path><path d="M353.93,244.54,360,245.8c5.51,3.49-.13,11.12-.13,11.12l-1.52,4.14a3.3,3.3,0,0,1-3.84,1.86l-4.26-.85a3.43,3.43,0,0,1-2.95-3.77l.73-3.78a6.83,6.83,0,0,1,1.39-3Z" style="fill:#ce7a63"></path><path d="M358,153.34c9.26,13.58,11.81,23,11.81,23s-12.34,14.16-23.64,10.23c0,0-7-12.32-7.21-22.89C338.75,153.94,351.61,144.05,358,153.34Z" style="fill:#C53F3F"></path><path d="M358,153.34c9.26,13.58,11.81,23,11.81,23s-12.34,14.16-23.64,10.23c0,0-7-12.32-7.21-22.89C338.75,153.94,351.61,144.05,358,153.34Z" style="fill:#fff;opacity:0.1"></path></g><g id="freepik--character-1--inject-47"><path d="M177.56,157.78c-.47,4-1.1,8.06-1.79,12.06-.34,2-.69,4-1.08,6s-.74,4-1.17,6l-2.46,12a28.49,28.49,0,0,0-.61,4.88,27.56,27.56,0,0,0,.34,4.86l-.12-.57q.87,4,1.62,7.95c.5,2.66.94,5.34,1.39,8l.59,4,.53,4c.3,2.71.6,5.42.73,8.18a3.63,3.63,0,0,1-6.88,1.76c-1.21-2.47-2.26-5-3.3-7.52l-1.49-3.8-1.42-3.82c-.9-2.56-1.8-5.11-2.64-7.69s-1.65-5.15-2.42-7.74l0-.17-.08-.41a41.45,41.45,0,0,1-.68-7.28,42.09,42.09,0,0,1,.69-7.25c.39-2.22.76-4.05,1.08-6l1-6c.32-2,.71-4,1.08-6s.75-4,1.16-6c.81-4,1.67-8,2.71-11.93a6.76,6.76,0,0,1,13.26,2.48Z" style="fill:#ffb573"></path><path d="M172.94,148.21s-6.82-1.15-10.77,6.3c-2.91,5.47-6.6,25.55-5.93,25.68s19.07,4,19.07,4S187.07,148.07,172.94,148.21Z" style="fill:#C53F3F"></path><path d="M172.94,148.21s-6.82-1.15-10.77,6.3c-2.91,5.47-6.6,25.55-5.93,25.68s19.07,4,19.07,4S187.07,148.07,172.94,148.21Z" style="opacity:0.1"></path><path d="M178.91,136c-4.22-3-8.09-6.71-10-11.51s-1.38-10.76,2.22-14.45c.29-.3.68-.6,1.07-.46s.47.44.59.75C176.07,118.67,175,128,178.91,136Z" style="fill:#263238"></path><path d="M179.39,129.52c.68,6,.78,16-3.71,19.62,0,0-.27,6.1,16,14.05,6.8-8.22,2.54-12.53,2.54-12.53-6.54-2.13-5.79-5.94-4.26-10.48Z" style="fill:#ffb573"></path><path d="M195.27,149.07a15.44,15.44,0,0,1,7.1,2.14c4.73,2.88,6.56,7.42,6.56,15.36,0,10.59.58,5.87,0,11.56l-.42,43.66-40.68-2.17s-1.1-17.33-1.37-27.31c-.46-16.8-6.64-24.7-3.47-37.31.93-3.72,5.9-7.22,12.28-7.22Z" style="fill:#C53F3F"></path><path d="M173.72,147.78l.18-1.23a1.64,1.64,0,0,1,1.81-1.38l13.77,1.61,4.1,2.28S181.53,150.57,173.72,147.78Z" style="fill:#C53F3F"></path><path d="M173.72,147.78l.18-1.23a1.64,1.64,0,0,1,1.81-1.38l13.77,1.61,4.1,2.28S181.53,150.57,173.72,147.78Z" style="fill:#fff;opacity:0.2"></path><polygon points="147.27 403.02 155.84 406.17 177.59 357.97 164.05 353 147.27 403.02" style="fill:#ffb573"></polygon><polygon points="177.59 357.97 159.24 398.63 149.78 395.51 164.05 353 177.59 357.97" style="opacity:0.2"></polygon><path d="M159.37,407.33c1.1.4,2.23.62,2.74.25a.82.82,0,0,0,.28-.91,1.16,1.16,0,0,0-.5-.72c-1.31-.91-4.89-.25-5-.22a.23.23,0,0,0-.17.18.24.24,0,0,0,.11.23A17.17,17.17,0,0,0,159.37,407.33Zm1.91-1.21a1.93,1.93,0,0,1,.38.19.66.66,0,0,1,.3.43c.07.31,0,.42-.1.48-.58.42-2.77-.35-4.31-1.15A9.57,9.57,0,0,1,161.28,406.12Z" style="fill:#C53F3F"></path><path d="M156.83,406.15l.09,0c1.19-.11,3.86-1.26,4-2.31,0-.24,0-.59-.58-.85a1.55,1.55,0,0,0-1.25-.05c-1.39.52-2.37,2.8-2.41,2.89a.24.24,0,0,0,0,.22A.21.21,0,0,0,156.83,406.15Zm3.24-2.79.12.05c.36.17.33.33.32.38-.09.62-2,1.61-3.24,1.88a4.92,4.92,0,0,1,2-2.29A1.11,1.11,0,0,1,160.07,403.36Z" style="fill:#C53F3F"></path><path d="M156.3,404.61l-9.44-3.38a.77.77,0,0,0-.92.34l-4.18,7.17a1.39,1.39,0,0,0,.75,2c3.42,1.16,8.4,2.71,12.68,4.24,5,1.79,2.09,1.06,8,3.15,3.55,1.27,5.69-2,4.31-2.87-6.29-3.91-4.61-3.49-9.29-9.23A4.34,4.34,0,0,0,156.3,404.61Z" style="fill:#263238"></path><path d="M198.3,219.62l-1.24,67.17c-.27,29.43-9.36,57.43-21.87,84.07l-11.83,25.22L148,391l19.22-70,1.56-58.77c-3.8-8.52-5-17.54-3.77-24.57.72-4.18,1.5-8.36,2.06-12.56l.73-5.48Z" style="fill:#263238"></path><path d="M198.3,219.62l-1.24,67.17c-.27,29.43-9.36,57.43-21.87,84.07l-11.83,25.22L148,391l19.22-70,1.56-58.77c-3.8-8.52-5-17.54-3.77-24.57.72-4.18,1.5-8.36,2.06-12.56l.73-5.48Z" style="opacity:0.2"></path><path d="M146.38,391l18.12,6.82a.67.67,0,0,0,.83-.32l3.39-6.32a.68.68,0,0,0-.4-1l-20.63-6.4a.68.68,0,0,0-.87.55l-.87,5.91A.66.66,0,0,0,146.38,391Z" style="fill:#263238"></path><polygon points="199.39 411.78 209.3 411.78 213.44 354.55 197.79 354.55 199.39 411.78" style="fill:#ffb573"></polygon><polygon points="213.44 354.55 209.94 402.95 199.15 402.95 197.79 354.55 213.44 354.55" style="opacity:0.2"></polygon><path d="M212.74,410.82c1.15,0,2.26-.16,2.63-.68a.81.81,0,0,0,0-.93,1,1,0,0,0-.67-.49c-1.49-.41-4.63,1.38-4.76,1.45a.2.2,0,0,0-.1.22.21.21,0,0,0,.17.18A16.05,16.05,0,0,0,212.74,410.82Zm1.42-1.74a1.32,1.32,0,0,1,.41.05.64.64,0,0,1,.41.29c.15.27.1.4.05.47-.42.58-2.69.6-4.36.36A9.61,9.61,0,0,1,214.16,409.08Z" style="fill:#C53F3F"></path><path d="M210,410.57l.08,0c1.09-.48,3.23-2.42,3.07-3.44,0-.24-.21-.53-.79-.59a1.55,1.55,0,0,0-1.18.36c-1.14.94-1.38,3.36-1.39,3.46a.2.2,0,0,0,.21.23Zm2.18-3.63h.13c.38,0,.41.19.42.24.09.61-1.36,2.13-2.47,2.8a5,5,0,0,1,1.19-2.77A1.14,1.14,0,0,1,212.21,406.94Z" style="fill:#C53F3F"></path><path d="M208.79,409.32H199.5a.76.76,0,0,0-.73.61l-1.68,8a1.3,1.3,0,0,0,1.23,1.6c3.35-.06,8.19-.27,12.4-.27,4.93,0,9.18.28,15,.28,3.49,0,4.46-3.72,3-4.06-6.66-1.53-12.09-1.69-17.84-5.43A3.8,3.8,0,0,0,208.79,409.32Z" style="fill:#263238"></path><path d="M174,219.64l-6.15,0c-1,25,8.63,38,9.25,39.27l2.6,5.27c2.61,5.27,13,57.31,13,57.31-2.12,17.32,1.37,35.19,2.48,52.6l1.77,25.86h16.14l5.21-63.29a127.68,127.68,0,0,0,.24-27.22c-9.55-87.63-10-89.8-10-89.8Z" style="fill:#263238"></path><path d="M195.64,401.25l19.35-.52a.69.69,0,0,0,.66-.61l.74-7.13a.68.68,0,0,0-.73-.75l-21.53,1.86a.68.68,0,0,0-.59.84l1.43,5.8A.66.66,0,0,0,195.64,401.25Z" style="fill:#263238"></path><path d="M183.7,133.81l6.24,6.36a18.15,18.15,0,0,0-.84,3.24c-2.53-.57-6.35-3.06-6.67-5.87A8.14,8.14,0,0,1,183.7,133.81Z" style="isolation:isolate;opacity:0.2"></path><path d="M197.33,111.79a10,10,0,0,0-3.89-7.29,5,5,0,0,1-.53,3.39Z" style="fill:#263238"></path><path d="M173.59,120.86c1.78,9.48,2.34,13.52,7.78,17.81,8.18,6.47,19.44,2.2,20.53-7.62,1-8.85-2.12-22.92-12-25.49a13.15,13.15,0,0,0-16.35,15.3Z" style="fill:#ffb573"></path><path d="M190.09,121.44c.11.78.6,1.36,1.1,1.3s.85-.75.76-1.53-.6-1.35-1.1-1.3S190,120.7,190.09,121.44Z" style="fill:#263238"></path><path d="M198.88,120.36c.11.79.6,1.35,1.1,1.3s.85-.76.76-1.53-.6-1.36-1.1-1.29S198.79,119.58,198.88,120.36Z" style="fill:#263238"></path><path d="M196.48,120.11a27.88,27.88,0,0,0,5.17,5.94,5,5,0,0,1-3.71,1.66Z" style="fill:#ed893e"></path><path d="M186.25,118.44a.44.44,0,0,0,.53-.11,5.45,5.45,0,0,1,4.16-1.31.46.46,0,0,0,.13-.91h0a6.24,6.24,0,0,0-5,1.62.45.45,0,0,0,0,.64h0A.24.24,0,0,0,186.25,118.44Z" style="fill:#263238"></path><path d="M200.59,115.51a.46.46,0,0,0,.35-.31.47.47,0,0,0-.29-.59,4.52,4.52,0,0,0-4.21.55.45.45,0,0,0-.1.62s0,0,0,0a.46.46,0,0,0,.64.07h0a3.67,3.67,0,0,1,3.31-.38A.41.41,0,0,0,200.59,115.51Z" style="fill:#263238"></path><path d="M182.22,112.54a61,61,0,0,0-1.57,10.25c-1.13.36-.49.28-1.61.64a11.08,11.08,0,0,0,2,5.16,7.48,7.48,0,0,1-3.43.74,5.32,5.32,0,0,0-4.9-3.8,22.47,22.47,0,0,1-1.15-11.68A100.63,100.63,0,0,0,182.22,112.54Z" style="fill:#263238"></path><path d="M194,104.24a6.16,6.16,0,0,1-1.54,7.73c0-1,0-2,0-3a17.58,17.58,0,0,1-4.24,4.49c.11-1,.24-1.72.35-2.67a14,14,0,0,1-5,3.77,8.67,8.67,0,0,0,1.48-3.48,15.52,15.52,0,0,1-6.33,4.49,4.12,4.12,0,0,0,.84-2.3c-2.07.57-4.15,1.11-6.24,1.6a2.86,2.86,0,0,1-2,0c-1-.54-1-2-.65-3a10.88,10.88,0,0,1,10-7.6,16.35,16.35,0,0,0,4.62-.63,17.45,17.45,0,0,1,4.7-1C191.54,102.48,193.15,102.85,194,104.24Z" style="fill:#263238"></path><path d="M171.91,128.53a6.92,6.92,0,0,0,4,3.48c2.31.74,3.58-1.3,3-3.55-.52-2-2.33-4.84-4.69-4.65a3.11,3.11,0,0,0-2.31,4.72Z" style="fill:#ffb573"></path><path d="M240.49,182.88l6-4,2.45-2.11s-5.72-6.75-6.45-7.19c0,0-4.25,2.47-5.71,6.32l-1.06,3.68Z" style="fill:#ffb573"></path><path d="M246.88,178.44l-4.7-8.57,1.68-1a1.35,1.35,0,0,1,2,.36l3.67,3.7c.59,1,1,2.33.27,3.17Z" style="fill:#ffb573"></path><path d="M190.45,161.25s.4,28.9,4.67,28.87,11.59-5.41,10.45-12.57S190.45,161.25,190.45,161.25Z" style="opacity:0.1"></path><path d="M207.47,157.21c.86,2.71,1.63,5.45,2.38,8.19s1.46,5.49,2.13,8.26,1.34,5.53,2,8.32,1.24,5.56,1.82,8.35l-.25-.68a.88.88,0,0,0-.41-.26.55.55,0,0,0-.4,0,.69.69,0,0,0-.28.22c-.1.07-.29.19-.28.23s.06.06.19,0l.44-.35c2.24-1.36,4.53-2.65,6.79-4s4.59-2.58,6.87-3.88,4.62-2.53,7-3.74,4.7-2.43,7.09-3.57a2.47,2.47,0,0,1,2.83,3.95q-2.77,2.85-5.66,5.57c-1.9,1.83-3.85,3.6-5.79,5.39s-3.9,3.54-5.89,5.24-3.95,3.48-6,5.15l.44-.35a13,13,0,0,1-2.12,1.64,11.36,11.36,0,0,1-2.9,1.26,12.64,12.64,0,0,1-11.27-2.31,13.19,13.19,0,0,1-3.72-4.79l-.24-.69c-1-2.65-2.09-5.3-3.08-8s-2-5.34-2.94-8-1.87-5.37-2.77-8.07-1.74-5.41-2.52-8.15a8.66,8.66,0,0,1,16.58-5Z" style="fill:#ffb573"></path><path d="M196.68,151.25s-6.89,1.68-6.43,7.86,5.3,25.86,6,25.67,19-6.34,19-6.34S209.31,144.92,196.68,151.25Z" style="fill:#C53F3F"></path><path d="M199.75,130.16s-2.47-.71-9.5-.85a5.43,5.43,0,0,0,5.71,4.4,3.54,3.54,0,0,0,3.76-3.22Z" style="fill:#263238"></path><path d="M194.41,131.79a5.85,5.85,0,0,1,3.85,1.24,3.73,3.73,0,0,1-2.29.66,5.87,5.87,0,0,1-3.85-1.24A3.49,3.49,0,0,1,194.41,131.79Z" style="fill:#ed893e"></path><path d="M199.43,130.09a1.64,1.64,0,0,1-1.17,1.15,34,34,0,0,1-6.19-.75,1.91,1.91,0,0,1-1.5-1.2A50.51,50.51,0,0,1,199.43,130.09Z" style="fill:#fff"></path></g></svg>