<svg xmlns="http://www.w3.org/2000/svg" viewBox="0 0 750 500"><g id="freepik--background-simple--inject-4"><path d="M405.74,258.63,407,257c10.82-13.42,13.67-31.64,6.86-47.31a45,45,0,0,0-3.06-5.83,48.53,48.53,0,0,0-40-22.3c-9.42-.09-19.29,2.51-28-1-11.34-4.53-16.29-17.4-20.06-28.92S314,127.3,302.64,122.81c-7.12-2.81-15.33-1.55-22.42,1.45-18.75,7.93-31,27.43-33.4,47.45s4.08,40.23,14.53,57.43c14.63,24.08,37.94,43.58,65.52,50.4S386.07,279.18,405.74,258.63Z" style="fill:#f5f5f5"></path><circle cx="638.94" cy="354.19" r="45.64" transform="translate(-63.31 555.54) rotate(-45)" style="fill:#f5f5f5"></circle></g><g id="freepik--Floor--inject-4"><path d="M711.37,480.19c0,.15-150.64.26-336.43.26s-336.47-.11-336.47-.26,150.61-.26,336.47-.26S711.37,480.05,711.37,480.19Z" style="fill:#263238"></path></g><g id="freepik--Bars--inject-4"><rect x="331.95" y="337.87" width="65.86" height="141.81" style="fill:#C53F3F"></rect><g style="opacity:0.30000000000000004"><rect x="377.39" y="337.87" width="20.42" height="141.81"></rect></g><path d="M377.39,479.68c-.15,0-.28-31.39-.28-70.1s.13-70.11.28-70.11.28,31.39.28,70.11S377.55,479.68,377.39,479.68Z" style="fill:#263238"></path><rect x="251.57" y="287.88" width="65.86" height="191.8" style="fill:#C53F3F"></rect><g style="opacity:0.30000000000000004"><rect x="297.02" y="287.88" width="20.42" height="191.8"></rect></g><path d="M297,479.68c-.16,0-.28-42.45-.28-94.81S296.86,290,297,290s.28,42.45.28,94.83S297.17,479.68,297,479.68Z" style="fill:#263238"></path><rect x="413.21" y="379.16" width="65.86" height="100.53" style="fill:#C53F3F"></rect><g style="opacity:0.30000000000000004"><rect x="458.65" y="379.16" width="20.42" height="100.53"></rect></g><path d="M458.65,479.68c-.16,0-.28-22.25-.28-49.69s.12-49.7.28-49.7.28,22.25.28,49.7S458.8,479.68,458.65,479.68Z" style="fill:#263238"></path><rect x="492.7" y="424.83" width="65.86" height="54.85" style="fill:#C53F3F"></rect><g style="opacity:0.30000000000000004"><rect x="538.15" y="424.83" width="20.42" height="54.85"></rect></g><path d="M538.15,479.68c-.16,0-.28-12.14-.28-27.11s.12-27.12.28-27.12.28,12.14.28,27.12S538.3,479.68,538.15,479.68Z" style="fill:#263238"></path><rect x="573.08" y="443.81" width="65.86" height="35.87" style="fill:#C53F3F"></rect><g style="opacity:0.30000000000000004"><rect x="618.52" y="443.81" width="20.42" height="35.87"></rect></g><path d="M618.52,479.68c-.15,0-.28-7.94-.28-17.73s.13-17.74.28-17.74.28,7.94.28,17.74S618.68,479.68,618.52,479.68Z" style="fill:#263238"></path><rect x="171.2" y="224.82" width="65.86" height="254.82" style="fill:#C53F3F"></rect><g style="opacity:0.30000000000000004"><rect x="216.64" y="224.82" width="20.42" height="254.82"></rect></g><path d="M216.64,480.68c-.15,0-.28-56.63-.28-126.48s.13-126.5.28-126.5.28,56.63.28,126.5S216.79,480.68,216.64,480.68Z" style="fill:#263238"></path><rect x="90.82" y="173.1" width="65.86" height="307.58" style="fill:#C53F3F"></rect><g style="opacity:0.30000000000000004"><rect x="136.26" y="173.1" width="20.42" height="307.58"></rect></g><path d="M136.26,480.68c-.15,0-.28-68.08-.28-152s.13-152.06.28-152.06.28,68.06.28,152.06S136.42,480.68,136.26,480.68Z" style="fill:#263238"></path></g><g id="freepik--Target--inject-4"><circle cx="119.62" cy="111.15" r="41.86" transform="translate(-41.75 86.17) rotate(-34.1)" style="fill:#C53F3F"></circle><circle cx="119.62" cy="111.15" r="41.86" transform="translate(-41.75 86.17) rotate(-34.1)" style="opacity:0.30000000000000004"></circle><circle cx="119.62" cy="106.53" r="41.86" transform="translate(-39.16 85.38) rotate(-34.1)" style="fill:#C53F3F"></circle><circle cx="119.62" cy="106.53" r="28.04" style="fill:#fff"></circle><circle cx="119.62" cy="106.53" r="13.72" transform="translate(-40.29 115.78) rotate(-45)" style="fill:#C53F3F"></circle><polygon points="153.27 71.08 152.13 62.15 161.23 52.42 161.88 62.06 153.27 71.08" style="fill:#455a64"></polygon><polygon points="172.78 63.98 163.56 63.23 154.32 72.12 163.56 73.11 172.78 63.98" style="fill:#455a64"></polygon><path d="M121.45,106.33l32-24.44a39.77,39.77,0,0,0-4-4.89l-28,27.15Z" style="opacity:0.30000000000000004"></path><path d="M162.71,59.67,148,74.55l-23.29,23.6-5.36,5.43c-1.7,1.72,1,4.37,2.65,2.65l14.69-14.88L160,67.75l5.36-5.43c1.69-1.72-1-4.37-2.66-2.65Z" style="fill:#263238"></path><path d="M119.62,54c-.15,0-.26-8-.26-17.89s.11-17.89.26-17.89.26,8,.26,17.89S119.76,54,119.62,54Z" style="fill:#263238"></path><path d="M146.65,35.33c.11.09-2.75,4.11-6.39,9s-6.69,8.75-6.81,8.66,2.75-4.1,6.39-9S146.53,35.25,146.65,35.33Z" style="fill:#263238"></path><path d="M92.26,34.51c.13-.07,2.61,4.19,5.55,9.51s5.21,9.7,5.09,9.77-2.61-4.19-5.55-9.52S92.14,34.58,92.26,34.51Z" style="fill:#263238"></path></g><g id="freepik--Character--inject-4"><path d="M425.07,161.84a30.92,30.92,0,0,0-4.85-4.29,11.52,11.52,0,0,0-2.92-1.11s-14.87-4.1-18-4.38-2.81,2.28.09,2.76,9.08,3,9.08,3a1.69,1.69,0,0,0-1.36,1.54A1.44,1.44,0,0,0,408,161a4.06,4.06,0,0,0-.82,1.76,4.12,4.12,0,0,0,.72,1.74s-1.08.88-.74,1.87A8.41,8.41,0,0,0,409,168.7s6.36,4,7.73,4.13,3,.41,3,.41l2.24,1.62,6-9.41A28.91,28.91,0,0,0,425.07,161.84Z" style="fill:#ffbf9d"></path><path d="M408.47,157.74a5.84,5.84,0,0,0,1.29.35,6,6,0,0,0,1.32.18,5.09,5.09,0,0,0-1.28-.35A5.36,5.36,0,0,0,408.47,157.74Z" style="fill:#ff9a6c"></path><path d="M407.85,160.92a6.39,6.39,0,0,0,1.25.41,7.69,7.69,0,0,0,1.27.35,3.89,3.89,0,0,0-1.21-.5A4.5,4.5,0,0,0,407.85,160.92Z" style="fill:#ff9a6c"></path><path d="M407.49,163.94a10.67,10.67,0,0,0,1.35.58,10,10,0,0,0,1.36.54,4.52,4.52,0,0,0-1.28-.69A5.11,5.11,0,0,0,407.49,163.94Z" style="fill:#ff9a6c"></path><path d="M535.38,308.42s-2.65-24.28-8.33-27-13.58-4.47-15.73-.83a42.88,42.88,0,0,0-5.24,14.92c-.86,5.81-.37,14.69-.37,14.69l6.48-.72s-.32-24.21,1.65-27.78,11.95-.71,13,3.6S530.37,309,530.37,309Z" style="fill:#455a64"></path><path d="M558,342.67c-.3-10-1.26-32.11-1.69-41.82a4.92,4.92,0,0,0-5-4.72l-59.58.36a4.93,4.93,0,0,0-4.9,4.79l-1.17,41.14a5,5,0,0,0,4.92,5.08l62.42.25A4.92,4.92,0,0,0,558,342.67Z" style="fill:#455a64"></path><path d="M491,311.58s0,.15,0,.44v1.33c0,1.19,0,2.92,0,5.14,0,4.5.07,11,.12,19,0,.51,0,1,0,1.53a2.88,2.88,0,0,0,.35,1.58,2.65,2.65,0,0,0,1.22,1.12,3.57,3.57,0,0,0,1.66.25h6.82l15,0,16.6,0,8.79,0h5.62a5.46,5.46,0,0,0,1.19-.07,2.77,2.77,0,0,0,1.86-1.51,2.69,2.69,0,0,0,.25-1c0-.36,0-.67,0-1,0-.65,0-1.3,0-1.95,0-1.3-.05-2.59-.08-3.87q-.09-3.84-.16-7.58c-.11-5-.22-9.79-.32-14.39v-.22h-.22c-17.12,1.05-31.8,1.33-42.19,1.38-5.2,0-9.32,0-12.15,0l-3.25,0H491l.29,0,.85,0,3.21.09c2.83.07,6.95.14,12.15.15,10.4,0,25.09-.2,42.22-1.22l-.23-.2c.1,4.6.2,9.41.3,14.39q.07,3.73.15,7.58,0,1.92.09,3.87c0,.65,0,1.3,0,1.95a3.79,3.79,0,0,1-.2,1.83,2.3,2.3,0,0,1-1.57,1.26,4.63,4.63,0,0,1-1.08.07h-1.13l-4.49,0-8.79,0-16.61.06-15,.07-6.81,0a3.17,3.17,0,0,1-1.52-.2,2.41,2.41,0,0,1-1.08-1,2.61,2.61,0,0,1-.31-1.41c0-.51,0-1,0-1.51-.12-8-.22-14.44-.28-18.92,0-2.24-.08-4-.1-5.18l0-1.35C491,311.75,491,311.58,491,311.58Z" style="fill:#263238"></path><path d="M508.09,338s-.37,0-1-.15a5.25,5.25,0,0,1-2.58-1.42,5.42,5.42,0,0,1-1.45-4.33c0-1.88,0-4,0-6.35,0-1.18,0-2.41,0-3.7a5.26,5.26,0,0,1,1.06-3.64,5,5,0,0,1,3.54-1.88c1.45,0,3,0,4.53-.05l20.24-.16a4.91,4.91,0,0,1,5,4.72q0,1.29,0,2.55c0,1.7,0,3.36,0,5,0,.81,0,1.62,0,2.41a19.9,19.9,0,0,1,0,2.33,4.94,4.94,0,0,1-4.27,4.22c-.68.07-1.41,0-2.09.06l-7.69.1-11.15.17-3,.07-.79,0-.27,0,.27,0h.79l3,0,11.14,0,7.69,0c.7,0,1.38,0,2.13-.05a5.41,5.41,0,0,0,2.12-.73,5.31,5.31,0,0,0,2.52-3.81,21.28,21.28,0,0,0,.05-2.39c0-.8,0-1.6,0-2.42,0-1.63,0-3.29,0-5,0-.85,0-1.7,0-2.57a5.35,5.35,0,0,0-5.41-5.15l-20.23.2c-1.56,0-3.06,0-4.56.07a5.31,5.31,0,0,0-3.8,2,5.6,5.6,0,0,0-1.11,3.88c0,1.28,0,2.51.05,3.69q0,3.53.09,6.35c0,.46,0,.91.05,1.36a5.92,5.92,0,0,0,.31,1.24,5.33,5.33,0,0,0,1.22,1.85A5.1,5.1,0,0,0,507,338,4,4,0,0,0,508.09,338Z" style="fill:#263238"></path><g style="opacity:0.30000000000000004"><path d="M548.64,341.58a95.22,95.22,0,0,1-54.55.13Z"></path></g><rect x="512.86" y="318.68" width="11.02" height="3.99" rx="1.81" transform="translate(1039.65 636.6) rotate(179.48)" style="fill:#e0e0e0"></rect><path d="M515.19,271.34a17.27,17.27,0,0,0-2.72,3c-.7,1.24-1.94,6.6-1.94,6.6s1,.89,2.77-1.93a26.43,26.43,0,0,0,2.29-4.25Z" style="fill:#ffbf9d"></path><path d="M524,260.7l-2.36,4.16-6.52,6.59-2.45,9.77a4.3,4.3,0,0,0,.34,3.07,1.58,1.58,0,0,0,.65.73c.73.3,2.8-.75,2.8-.75s1.5,1.86,3.1.76c0,0,2.32,1.19,3.61,0,0,0,1.47,1.16,2.56.44s4.22-5.29,4.22-5.29l4.2-15.06Z" style="fill:#ffbf9d"></path><path d="M539.31,178.34a10.62,10.62,0,0,1,4.36,8.17c.17,4.1,3.25,31.92,3,39.4s-13,42.91-13,42.91l-14.07-4.24L531.73,225l-1.2-24.87Z" style="fill:#ebebeb"></path><path d="M514.63,117.16a3.88,3.88,0,0,0-3.95-2.09,5.31,5.31,0,0,0-6.51-.1,4.85,4.85,0,0,0-4.64-.25,4.78,4.78,0,0,0-2.6,3.82,4.07,4.07,0,0,0-4.18,1.91,4,4,0,0,0,.52,4.54,3.75,3.75,0,0,0,1.33,7.34l19.18-10.81A3.83,3.83,0,0,0,514.63,117.16Z" style="fill:#263238"></path><path d="M492.16,153.1c.09-4.12,1-12.6,1.88-20.26a16,16,0,0,1,16.49-14.07l.83,0c8.94.83,13.22,8.81,12.14,17.65L521,164.3l-17.29,15.59-3.76-11,.6-5.61S492,161.64,492.16,153.1Z" style="fill:#ffbf9d"></path><path d="M500.45,163.25a21.08,21.08,0,0,0,11.39-2.89s-2.86,6-11.42,5Z" style="fill:#ff9a6c"></path><path d="M496.27,140.26a1.22,1.22,0,0,0,1.14,1.27,1.18,1.18,0,0,0,1.31-1.06,1.23,1.23,0,0,0-1.14-1.27A1.18,1.18,0,0,0,496.27,140.26Z" style="fill:#263238"></path><path d="M495.74,137.08c.15.16,1.1-.49,2.42-.44s2.27.74,2.42.58-.07-.36-.48-.68a3.52,3.52,0,0,0-1.93-.66,3.25,3.25,0,0,0-1.94.55C495.81,136.72,495.67,137,495.74,137.08Z" style="fill:#263238"></path><path d="M508.2,140.9a1.23,1.23,0,0,0,1.15,1.27,1.17,1.17,0,0,0,1.3-1,1.22,1.22,0,0,0-1.14-1.28A1.19,1.19,0,0,0,508.2,140.9Z" style="fill:#263238"></path><path d="M508.73,137.77c.15.17,1.1-.48,2.42-.43s2.27.73,2.42.58-.07-.36-.48-.68a3.45,3.45,0,0,0-1.93-.67,3.32,3.32,0,0,0-1.94.55C508.8,137.42,508.66,137.7,508.73,137.77Z" style="fill:#263238"></path><path d="M503.59,147.33a9.37,9.37,0,0,0-2.14-.46c-.33,0-.65-.12-.7-.35a1.67,1.67,0,0,1,.26-1L502.1,143a45.11,45.11,0,0,0,2.48-6.59,42.12,42.12,0,0,0-3,6.38c-.37.88-.71,1.72-1.05,2.53a2,2,0,0,0-.22,1.31.88.88,0,0,0,.54.51,2.09,2.09,0,0,0,.57.09A8.33,8.33,0,0,0,503.59,147.33Z" style="fill:#263238"></path><path d="M507.45,148.37c-.22,0-.27,1.41-1.53,2.38s-2.79.75-2.81.95.33.29,1,.33a3.65,3.65,0,0,0,2.34-.72,3.08,3.08,0,0,0,1.19-2C507.69,148.73,507.55,148.37,507.45,148.37Z" style="fill:#263238"></path><path d="M508.57,132.62c.12.36,1.44.24,3,.48s2.78.7,3,.39c.1-.15-.11-.49-.6-.86a5.16,5.16,0,0,0-2.21-.85,5.09,5.09,0,0,0-2.36.19C508.81,132.18,508.52,132.45,508.57,132.62Z" style="fill:#263238"></path><path d="M496.36,133.3c.22.31,1.14,0,2.24,0s2,.27,2.24,0c.1-.15,0-.45-.43-.75a3.26,3.26,0,0,0-3.61,0C496.4,132.85,496.26,133.15,496.36,133.3Z" style="fill:#263238"></path><path d="M495,129s2.46-5.27,5.1-6.43c3.2-1.4,4.43,2.07,7.46,1.35s6.08-2.08,9.06.33c3.27,2.63,1.64,4.34,1.71,8.13.3,15.38,3,19.82,4,12.62.12-.79,2.36-1.34,2.8-4.68.58-4.33.94-9.59.07-12.7-.73-2.63-2.16-4.47-4.77-6.54-4.12-3.27-9.92-3.54-13.87-3.28S494.88,122.25,495,129Z" style="fill:#263238"></path><path d="M521.82,144.71a2.33,2.33,0,0,1,2.6-2.15c1.6.21,3.36,1.17,3.14,4.46-.4,5.83-6.22,4.23-6.21,4.07S521.64,147.14,521.82,144.71Z" style="fill:#ffbf9d"></path><path d="M522.77,149s.1.08.27.17a1,1,0,0,0,.76.06,2.51,2.51,0,0,0,1.33-2.17,3.39,3.39,0,0,0-.19-1.48,1.2,1.2,0,0,0-.72-.83.52.52,0,0,0-.62.24c-.09.16-.06.28-.1.29s-.12-.11,0-.35a.7.7,0,0,1,.25-.35.8.8,0,0,1,.58-.11,1.44,1.44,0,0,1,1,1,3.38,3.38,0,0,1,.24,1.64,2.62,2.62,0,0,1-1.66,2.42,1.11,1.11,0,0,1-.92-.21C522.77,149.12,522.75,149,522.77,149Z" style="fill:#ff9a6c"></path><path d="M522.11,133.4a5.56,5.56,0,0,1-2.54,1,1.92,1.92,0,0,1-2.08-1.41c0-.41.06-.87-.2-1.2s-.9-.29-1.4-.25a3.76,3.76,0,0,1-3.8-2.81,1.58,1.58,0,0,1-2.12.13,8.12,8.12,0,0,1-1.54-1.76,2.46,2.46,0,0,0-2-1.07,5.75,5.75,0,0,1-1.29.24c-.77-.1-1.11-1-1.2-1.77s-.15-1.66-.79-2.09a3.06,3.06,0,0,0-2.1-.13c-.72.08-1.63-.12-1.79-.82a1.41,1.41,0,0,1,.3-1.05,3.85,3.85,0,0,1,4.55-1.27,5.18,5.18,0,0,1,9.52-.67,5.38,5.38,0,0,1,4.73-1,5.28,5.28,0,0,1,3.58,3.24,3.93,3.93,0,0,1,3.93,1.47,3.87,3.87,0,0,1,.17,4.16,3.58,3.58,0,0,1,1.88,2.91,2.07,2.07,0,0,1-2.41,2,2.15,2.15,0,0,1-.93,2.71,2.19,2.19,0,0,1-2.78-.76" style="fill:#263238"></path><path d="M526,131.27a1.41,1.41,0,0,1-.41,1.11,1.85,1.85,0,0,1-1.2.65,2,2,0,0,1-1.66-.54l.25,0a5.78,5.78,0,0,1-1.23,1.42,3.21,3.21,0,0,1-1.09.62,2.62,2.62,0,0,1-2.85-.95,3.53,3.53,0,0,1-.44-1.23,1.19,1.19,0,0,1,0-.48s.07.16.16.45a3.75,3.75,0,0,0,.51,1.12,2.41,2.41,0,0,0,3.53.21,5.8,5.8,0,0,0,1.17-1.33l.11-.16.14.14a1.79,1.79,0,0,0,1.4.49,1.7,1.7,0,0,0,1.08-.52A2.89,2.89,0,0,0,526,131.27Z" style="fill:#455a64"></path><path d="M509.44,149.29c-.09,0-.11-.62-.59-1.14s-1.08-.64-1.07-.73.17-.08.43,0a1.65,1.65,0,0,1,.89.54,1.67,1.67,0,0,1,.43.94C509.55,149.14,509.48,149.3,509.44,149.29Z" style="fill:#ff9a6c"></path><path d="M510,147.7c-.08.05-.29-.16-.6-.31s-.6-.2-.61-.3.36-.21.76,0S510.1,147.66,510,147.7Z" style="fill:#ff9a6c"></path><path d="M499.25,114.87c0-.05-.63.33-1.11,1.29a5,5,0,0,0-.53,1.8,3.31,3.31,0,0,0,.61,2.24,4.67,4.67,0,0,0,1.84,1.41,14.07,14.07,0,0,0,1.73.66,8,8,0,0,0,1.65.42,5.94,5.94,0,0,0-1.55-.7,17.44,17.44,0,0,1-1.66-.72,4.74,4.74,0,0,1-1.67-1.31,3,3,0,0,1-.56-2,5.05,5.05,0,0,1,.41-1.7A6.58,6.58,0,0,1,499.25,114.87Z" style="fill:#e0e0e0"></path><path d="M495.52,118.71s-.09.37.07.94a4.29,4.29,0,0,0,1.22,1.93,4.36,4.36,0,0,0,2,1c.59.11,1,.05,1,0s-.35-.11-.87-.28a5.28,5.28,0,0,1-1.83-1.08,5.09,5.09,0,0,1-1.22-1.72C495.65,119.05,495.58,118.7,495.52,118.71Z" style="fill:#e0e0e0"></path><path d="M489.36,174.64l-8.46,67.6c-.41,3.29,2.56,9.27,5.78,10.08L529.46,257c2.59.45,4.69-1.54,5-4.16,1.07-9.17,1.8-28.44,3.13-41,1.45-13.84,4.11-31.43.89-33.93a115.64,115.64,0,0,0-16.38-10l-.72-6.28s-19.07,2.2-22.32,5l-1.51,6.08Z" style="fill:#ebebeb"></path><path d="M496.13,173.45l-39.25,3.71-30.52-14.95-6.45,13.4,4.67,2.43c7.52,4.8,21.25,14.88,27,17.4,8,3.54,48.25-1,48.25-1Z" style="fill:#ebebeb"></path><path d="M485,196.07a20.76,20.76,0,0,0,2.59-.37,12.79,12.79,0,0,0,6.08-3.44,14.66,14.66,0,0,0,4.1-9.39,11.9,11.9,0,0,0-1.26-5.94,4.48,4.48,0,0,0-2.09-2.26,7,7,0,0,0-3.24-.4c-9.19.68-17.52,1.5-23.54,2l-7.14.61-1.94.15a3.17,3.17,0,0,1-.68,0,3.6,3.6,0,0,1,.67-.12l1.93-.25,7.12-.78c6-.6,14.33-1.48,23.55-2.16a7.5,7.5,0,0,1,3.48.44,5.06,5.06,0,0,1,2.34,2.5,12.33,12.33,0,0,1,1.28,6.21,14.87,14.87,0,0,1-4.32,9.62,12.57,12.57,0,0,1-6.3,3.38,11.68,11.68,0,0,1-1.95.21A2.54,2.54,0,0,1,485,196.07Z" style="fill:#263238"></path><path d="M522.1,167.88c0,.08-1.37.29-3.59.72s-5.27,1.12-8.63,1.94-6.43,1.46-8.68,1.79c-1.12.17-2,.28-2.67.33a4.06,4.06,0,0,1-1,0c0-.08,1.37-.29,3.59-.72s5.26-1.12,8.62-1.94,6.44-1.46,8.68-1.79c1.13-.17,2-.28,2.67-.33A4.14,4.14,0,0,1,522.1,167.88Z" style="fill:#263238"></path><path d="M539.71,184.92a4.11,4.11,0,0,1,0,.74c0,.54-.13,1.25-.21,2.13-.2,1.9-.47,4.56-.81,7.81-.65,6.6-1.45,15.73-2,25.83-.28,5-.48,9.87-.61,14.25-.06,2.19-.11,4.27-.16,6.22s0,3.77-.16,5.44a20.57,20.57,0,0,1-.73,4.44,9.87,9.87,0,0,1-1.47,3.07,6.49,6.49,0,0,1-1.52,1.52,5.51,5.51,0,0,1-.65.38,8.66,8.66,0,0,0,2-2,9.85,9.85,0,0,0,1.35-3,20.91,20.91,0,0,0,.64-4.39c.09-1.64.07-3.46.09-5.41s.06-4,.12-6.23c.11-4.39.29-9.21.57-14.27.56-10.11,1.41-19.24,2.16-25.84.37-3.29.71-6,1-7.8.12-.87.23-1.58.3-2.11A3.52,3.52,0,0,1,539.71,184.92Z" style="fill:#263238"></path><path d="M452.5,351.13l7.66,17.08s-20.16,7.9-20.33,11.65l39.25-.71-.05-3.28-8.65-28.18Z" style="fill:#455a64"></path><path d="M471.66,365.14A1.59,1.59,0,0,1,472.8,367,1.54,1.54,0,0,1,471,368.1a1.69,1.69,0,0,1-1.2-1.92,1.6,1.6,0,0,1,2-1" style="fill:#e0e0e0"></path><path d="M479.08,379.15l-.05-3.28-37.68,2s-1.74.79-1.52,2Z" style="fill:#263238"></path><path d="M459.52,368c0,.2,1,.27,1.93.86s1.47,1.4,1.64,1.32-.13-1.18-1.29-1.88S459.48,367.85,459.52,368Z" style="fill:#263238"></path><path d="M455.44,369.8c0,.19.79.5,1.46,1.3s.87,1.65,1.06,1.64.29-1.1-.55-2.08S455.44,369.62,455.44,369.8Z" style="fill:#263238"></path><path d="M453.19,374.77c.17,0,.42-.92-.09-2s-1.41-1.45-1.49-1.29.49.72.89,1.58S453,374.76,453.19,374.77Z" style="fill:#263238"></path><path d="M458.09,363.57c.09.17,1-.11,2.05-.05s1.93.38,2,.21-.73-.83-2-.88S458,363.42,458.09,363.57Z" style="fill:#263238"></path><polygon points="521.52 392.88 522.39 425.46 505.26 425.41 504.35 393.62 521.52 392.88" style="fill:#455a64"></polygon><path d="M513.89,423.81c-.15,0-.36-6.95-.48-15.51s-.11-15.52,0-15.53.36,7,.49,15.52S514,423.81,513.89,423.81Z" style="fill:#263238"></path><path d="M505,415.25s.11-.27.42-.7a12,12,0,0,1,1.49-1.67A11.58,11.58,0,0,1,509.6,411a9.13,9.13,0,0,1,10.71,1.74,7.61,7.61,0,0,1,1.3,1.83,2.25,2.25,0,0,1,.29.77,17.23,17.23,0,0,0-1.85-2.35,9.09,9.09,0,0,0-6.47-2.48,10.48,10.48,0,0,0-6.46,2.68C505.72,414.36,505,415.31,505,415.25Z" style="fill:#263238"></path><polygon points="522.33 425.49 505.28 425.41 505.15 421.56 522.35 421.64 522.33 425.49" style="fill:#263238"></polygon><path d="M522.88,254.89l-35.52-3.11-.59,3.9c-9,7.25-37.25,24.58-51.81,38.77,0,0-5.38,7.5-3.24,14.1l22.77,51.61,23.17-5.34L463.52,311,507,290.7c8.45-3.13,16.07-13.8,17.87-19.92C526.43,265.54,523.11,261.6,522.88,254.89Z" style="fill:#263238"></path><path d="M493.05,296l9.4,109.63,23.71-.13s.76-33.47.29-56S528.73,281,528.73,281Z" style="fill:#263238"></path><path d="M522.88,254.89l11.4,1.26s1.12,22.77.3,25.66-7,14.31-7,14.31l-33.72,9.82V280.26Z" style="fill:#263238"></path><path d="M519.87,278.21a2.77,2.77,0,0,1-.28.61,15.42,15.42,0,0,1-.93,1.7,23.49,23.49,0,0,1-4.54,5.47,40.91,40.91,0,0,1-8.75,5.88c-3.52,1.85-7.54,3.54-11.68,5.47L472.4,307.1l-6.48,2.9-1.77.77a3.28,3.28,0,0,1-.63.24,3.53,3.53,0,0,1,.59-.32l1.73-.85,6.42-3,21.23-9.88c4.15-1.93,8.17-3.61,11.68-5.43a41.91,41.91,0,0,0,8.73-5.74,25.06,25.06,0,0,0,4.6-5.32C519.41,279,519.83,278.18,519.87,278.21Z" style="fill:#455a64"></path><path d="M448.44,309a10.11,10.11,0,0,1,2.46-.47,26.74,26.74,0,0,1,6,0,25.26,25.26,0,0,1,5.88,1.38,9.3,9.3,0,0,1,2.26,1.07,22,22,0,0,1-2.37-.75,31.46,31.46,0,0,0-5.83-1.23,35.2,35.2,0,0,0-5.95-.13A17.36,17.36,0,0,1,448.44,309Z" style="fill:#455a64"></path><polygon points="486.51 255.64 534.46 260.17 534.3 256.66 487.36 251.78 486.51 255.64" style="fill:#455a64"></polygon><path d="M496.67,257.1c.14-.28.48-4.44.48-4.44l2.61.27-.63,5.09Z" style="fill:#263238"></path><path d="M521.81,259.78c.14-.28.49-4.44.49-4.44l2.6.27-.62,5.09Z" style="fill:#263238"></path></g></svg>
